<svg id="_x31_px" enable-background="new 0 0 36 36" height="512" viewBox="0 0 36 36" width="512" xmlns="http://www.w3.org/2000/svg"><path d="m4.1666665 8.3767748c0 6.916666-3.5833333 11.666667-3.5833333 14.999999s1.9166668 10.3333359 17.2500008 10.3333359 17.583334-9.4166679 17.583334-13.0833359c-.0000001-17.166666-31.2500015-24.4999993-31.2500015-12.249999z" fill="#efefef"/><path d="m32.1796875 6.1435547c-.8271484 0-1.5-.6728516-1.5-1.5s.6728516-1.5 1.5-1.5 1.5.6728516 1.5 1.5-.6728516 1.5-1.5 1.5zm0-2c-.2753906 0-.5.2246094-.5.5s.2246094.5.5.5.5-.2246094.5-.5-.2246094-.5-.5-.5z" fill="#a4afc1"/><path d="m17.3587208 13.9875193c-.2618351 1.3739777-.8563023 2.6048365-1.6738892 3.4659033-.6483564.6828709-1.3546877 1.0466366-2.0186195 1.0465622-.4886742 0-.896759-.1961288-1.2423391-.5082321-.1178904-.1064301-.2708569-.1596279-.4238634-.1596279s-.3059721.053196-.4238625.1596279c-.2951307.2665062-.6174078.4298019-.9578085.4853573-.743268.121294-1.5612583-.2422848-2.3031902-1.0236874-.8175859-.8610668-1.412014-2.0919256-1.6738486-3.4659033-.2616324-1.3728914-.1576185-2.7151604.2927837-3.7794676.4084897-.9652882 1.0432529-1.5637398 1.7874103-1.6851454.6166782-.1006651 1.1771231.159852 1.5386829.3960733.5339861.3488283 1.1824541.5687962 1.7779741.5687962.589694 0 1.1692839-.2210531 1.7016115-.5687962.5259352-.3435879 1.0437374-.4768982 1.5386829-.3960733h.000041c.7441158.1213675 1.3788795.7198572 1.7874088 1.6851082.4504433 1.0643816.5544167 2.4066133.2928258 3.7795048z" fill="#2fdf84"/><path d="m28.5 21.5h-4c-.5522842 0-1 .4477158-1 1v4.0000038c0 1.6568527 1.3431435 2.9999962 2.9999962 2.9999962h.0000076c1.6568527 0 2.9999962-1.3431435 2.9999962-2.9999962v-4.0000038c0-.5522842-.4477158-1-1-1z" fill="#f3f3f1"/><path d="m10.3151245 17.4534302c-.8175659-.861084-1.4119873-2.0919189-1.6738281-3.4659424-.2616577-1.3728638-.1575928-2.7151489.2927856-3.77948.277832-.6565552.6660767-1.1268311 1.1165161-1.4093018-.3526001-.1932983-.8179321-.3592529-1.3291015-.2758178-.7441406.1213989-1.3789063.7198486-1.7874146 1.6851196-.4503784 1.0643311-.5544434 2.4066162-.2927856 3.77948.2618408 1.3740234.8562622 2.6048584 1.6738281 3.4659424.7419434.7813721 1.5599365 1.1449585 2.3032227 1.0236816.2324829-.0379028.4521484-.1442871.664856-.281311-.3284303-.1759033-.6553956-.4130249-.9680787-.7423706z" fill="#00b871"/><path d="m25.5 26.5v-4c0-.5523071.4476929-1 1-1h-2c-.5523071 0-1 .4476929-1 1v4c0 1.6568604 1.3431396 3 3 3 .3525391 0 .685791-.0720215 1-.1837158-1.1625366-.4132691-2-1.5119629-2-2.8162842z" fill="#d5dbe1"/><path d="m16.25 28c-2.6191406 0-4.75-2.1308594-4.75-4.75v-5.25h1v5.25c0 2.0673828 1.6826172 3.75 3.75 3.75s3.75-1.6826172 3.75-3.75v-11.75c0-1.9296875 1.5703125-3.5 3.5-3.5s3.5 1.5703125 3.5 3.5v10h-1v-10c0-1.3789063-1.1210938-2.5-2.5-2.5s-2.5 1.1210938-2.5 2.5v11.75c0 2.6191406-2.1308594 4.75-4.75 4.75z"/><path d="m26.5 30c-1.9296875 0-3.5-1.5703125-3.5-3.5v-4c0-.8271484.6728516-1.5 1.5-1.5h4c.8271484 0 1.5.6728516 1.5 1.5v4c0 1.9296875-1.5703125 3.5-3.5 3.5zm-2-8c-.2753906 0-.5.2246094-.5.5v4c0 1.3789063 1.1210938 2.5 2.5 2.5s2.5-1.1210938 2.5-2.5v-4c0-.2753906-.2246094-.5-.5-.5z"/><path d="m10.3330078 19c-.8027344 0-1.6347656-.4169922-2.3798828-1.203125-.8828125-.9287109-1.5234375-2.2490234-1.8027344-3.7158203-.2802734-1.4697266-.1650391-2.9150391.3242188-4.0683594.4765625-1.1279297 1.2460937-1.8330078 2.1660156-1.9833984.7802734-.1318359 1.4570313.1875 1.8925781.4716797.4736328.3085938 1.0224609.4863281 1.5048828.4863281.4521484 0 .9335938-.1640625 1.4287109-.4873047.6318359-.4130859 1.2695313-.5712891 1.8916016-.4707031.9208984.1503906 1.6904297.8554688 2.1679688 1.984375.4882813 1.1523438.6035156 2.5976563.3232422 4.0673828-.2792969 1.4667969-.9199219 2.7871094-1.8027344 3.7167969-1.2773438 1.3457031-2.8310547 1.5820313-3.9580078.5654297h-.1777344c-.3691406.3320313-.7763672.5361328-1.2119141.6074219-.1210937.0195312-.243164.0292968-.3662109.0292968zm-1.3359375-10c-.0644531 0-.1289062.0048828-.1953125.015625-.5683594.09375-1.0673828.5859375-1.40625 1.3867188-.4130859.9746094-.5058594 2.2138672-.2626953 3.4912109.2441406 1.28125.7929688 2.4228516 1.5449219 3.2148438.6240234.6591797 1.2832031.9658203 1.8603516.8759766.2431641-.0400391.4794922-.1621094.703125-.3632813.4140625-.3730469 1.1035156-.3730469 1.5175781 0 .7353516.6611328 1.6757813.421875 2.5634766-.5117188.7519531-.7929688 1.3007813-1.9345703 1.5449219-3.2158203.2431641-1.2773438.1503906-2.5166016-.2617188-3.4902344-.3398438-.8017578-.8388672-1.2939453-1.4082032-1.3876953-.3652344-.0595703-.7666016.0498047-1.1835938.3212891-.6611327.4316406-1.3261718.6503906-1.9755859.6503906-.6708984 0-1.4189453-.2363281-2.0517578-.6494141-.2460937-.1611328-.6035156-.3378906-.9892578-.3378906z"/><path d="m12.0390625 9.9873047c-.015625 0-.0322266-.0009766-.0478516-.0019531-.2744141-.0263672-.4765625-.2695313-.4511719-.5449219.1113281-1.1826172-.2939453-1.9765625-1.2753906-2.4990234-.2431641-.1298828-.3359375-.4326172-.2060547-.6767578.1308594-.2441406.4355469-.3349609.6767578-.2060547 1.3242188.7060547 1.9472656 1.9082031 1.8007813 3.4755859-.024414.2587891-.2421875.453125-.4970703.453125z"/></svg>